HIERARCHY
ROOT Hips
{
  OFFSET 279.157 85.6768 304.565
  CHANNELS 6 Xposition Yposition Zposition Zrotation Xrotation Yrotation
  JOINT LeftUpLeg
  {
    OFFSET 8.64259 1.95398 -2.38835
    CHANNELS 3 Zrotation Xrotation Yrotation
    JOINT LeftLeg
    {
      OFFSET 43.7702 0 0
      CHANNELS 3 Zrotation Xrotation Yrotation
      JOINT LeftFoot
      {
        OFFSET 40.6238 0 0
        CHANNELS 3 Zrotation Xrotation Yrotation
        JOINT LeftToeBase
        {
          OFFSET 12.7242 0 0
          CHANNELS 3 Zrotation Xrotation Yrotation
          End Site
          {
            OFFSET 0 0 0
          }
        }
      }
    }
  }
  JOINT RightUpLeg
  {
    OFFSET -8.2249 1.95398 -2.59336
    CHANNELS 3 Zrotation Xrotation Yrotation
    JOINT RightLeg
    {
      OFFSET 43.5653 0 0
      CHANNELS 3 Zrotation Xrotation Yrotation
      JOINT RightFoot
      {
        OFFSET 40.6238 0 0
        CHANNELS 3 Zrotation Xrotation Yrotation
        JOINT RightToeBase
        {
          OFFSET 12.7242 0 0
          CHANNELS 3 Zrotation Xrotation Yrotation
          End Site
          {
            OFFSET 0 0 0
          }
        }
      }
    }
  }
  JOINT Spine
  {
    OFFSET 0.165834 0.87714 6.61349
    CHANNELS 3 Zrotation Xrotation Yrotation
    JOINT Spine1
    {
      OFFSET 7.38963 1.71661e-005 0
      CHANNELS 3 Zrotation Xrotation Yrotation
      JOINT Spine2
      {
        OFFSET 11.9445 1.14441e-005 0
        CHANNELS 3 Zrotation Xrotation Yrotation
        JOINT Spine3
        {
          OFFSET 14.7254 4.19617e-005 0
          CHANNELS 3 Zrotation Xrotation Yrotation
          JOINT Spine4
          {
            OFFSET 10.9679 0 0
            CHANNELS 3 Zrotation Xrotation Yrotation
            JOINT RightShoulder
            {
              OFFSET 2.46616 -1.6653 3.69651
              CHANNELS 3 Zrotation Xrotation Yrotation
              JOINT RightArm
              {
                OFFSET 13.0012 0 0
                CHANNELS 3 Zrotation Xrotation Yrotation
                JOINT RightForeArm
                {
                  OFFSET 28.7848 1.52588e-005 0
                  CHANNELS 3 Zrotation Xrotation Yrotation
                  JOINT RightHand
                  {
                    OFFSET 26.5688 1.52588e-005 0
                    CHANNELS 3 Zrotation Xrotation Yrotation
                    End Site
                    {
                      OFFSET 0 0 0
                    }
                  }
                }
              }
            }
            JOINT LeftShoulder
            {
              OFFSET 2.38034 -1.29275 -3.7523
              CHANNELS 3 Zrotation Xrotation Yrotation
              JOINT LeftArm
              {
                OFFSET 16.3182 6.10351e-005 0
                CHANNELS 3 Zrotation Xrotation Yrotation
                JOINT LeftForeArm
                {
                  OFFSET 27.0901 0 0
                  CHANNELS 3 Zrotation Xrotation Yrotation
                  JOINT LeftHand
                  {
                    OFFSET 24.5451 1.52588e-005 0
                    CHANNELS 3 Zrotation Xrotation Yrotation
                    End Site
                    {
                      OFFSET 0 0 0
                    }
                  }
                }
              }
            }
            JOINT Neck
            {
              OFFSET 5.0226 -0.0266342 0
              CHANNELS 3 Zrotation Xrotation Yrotation
              JOINT Head
              {
                OFFSET 6.69364 2.86102e-005 0
                CHANNELS 3 Zrotation Xrotation Yrotation
                End Site
                {
                  OFFSET 0 0 0
                }
              }
            }
          }
        }
      }
    }
  }
}
MOTION
Frames:	12
Frame Time:	0.0416667
-266.573 93.2963 251.875 112.435 57.8048 76.4941 -158.541 -33.0124 108.69 -9.24099 27.4863 2.9674 77.4756 13.3132 -0.935428 25.7875 -6.09606 15.838 173.499 11.2207 94.0754 -29.7572 2.32921 3.66829 71.2756 1.77861 2.12755 18.6974 3.21294 1.29002 -1.79953 8.18754 -90.588 10.4882 -3.85434 -0.826233 -1.17719 -3.88694 -0.655565 -23.7484 -3.42766 -1.9476 -3.73574 -3.42765 -1.9476 89.1524 -30.5433 -108.215 35.9285 7.44692 -7.58507 -10.2348 -12.4364 -59.1141 -13.9602 1.31093 -24.2638 -91.3495 -51.6149 77.0911 -26.4497 -0.248947 -15.9489 -70.6321 -27.8098 -76.486 31.1005 -16.0269 -54.3021 5.65003 -0.297741 -7.03961 -5.61429 0.981978 1.64668 
-261.468 94.2501 246.106 109.855 51.3782 78.4576 -168.581 -28.1343 99.7363 -24.2882 18.5997 3.50115 55.3553 0.906908 1.31124 24.1314 -3.8145 4.60821 171.622 8.70781 92.4991 -33.7396 -6.7667 5.26899 72.693 -4.08023 -0.246669 16.7721 3.4573 2.94374 -1.02977 8.0685 -90.5612 10.7278 -2.30922 -0.903263 -0.941422 -2.34675 -0.800725 -23.4859 -1.93102 -1.55566 -3.47329 -1.93102 -1.55567 89.0105 -29.4369 -108.948 37.03 7.42791 -6.48908 -10.9438 -13.7631 -59.4312 -14.688 1.26397 -23.6326 -91.5905 -51.4855 76.7081 -26.8495 6.4274 -12.4929 -15.7469 -16.2359 -54.0353 2.63757 -0.182321 -24.3383 5.35593 -0.0737095 -5.10116 -5.43131 0.842999 1.11017 
-256.886 95.7596 241.243 103.954 43.9435 84.2602 -169.953 -4.40377 87.886 -52.3812 12.0583 1.92923 57.0423 -1.32884 -0.453166 8.58247 -11.5642 0.617646 173.586 4.02908 94.2719 -27.4253 -13.3669 3.33536 71.4167 -6.27048 -2.01035 20.1653 2.84636 0.683424 0.138854 7.84513 -90.6619 11.1815 -0.0312099 -1.31482 -0.490062 -0.0890451 -1.31218 -23.0203 0.365361 -1.26342 -3.0077 0.365341 -1.26343 88.6727 -28.8343 -109.876 37.9543 8.25321 -7.48017 -12.467 -15.9759 -60.0436 -14.9118 1.10043 -23.4317 -91.302 -52.2579 77.3067 -24.5846 10.5607 -13.3052 -16.1489 -21.0389 -53.9255 -1.82753 -0.00908325 -17.3266 4.02158 -0.111808 -2.87387 -4.41277 0.370819 0.938129 
-252.26 97.4511 238.826 99.0268 35.9073 89.091 -166.751 10.9817 97.1833 -54.0207 3.56258 -1.58272 67.5136 4.55705 1.42926 11.6844 -11.4084 4.47793 178.253 -0.610212 97.3984 -17.9173 -15.4162 -0.216936 68.6457 -5.7464 -0.32112 20.8522 2.38789 1.74099 1.47313 7.59426 -90.7359 11.7046 2.58474 -1.73825 0.0347499 2.50578 -1.85035 -22.5169 2.98756 -0.880659 -2.50421 2.98754 -0.880674 88.9541 -28.9274 -109.272 38.6767 7.1757 -9.33531 -10.0733 -12.1378 -57.3039 -15.9517 1.50913 -22.9913 -91.0349 -52.1615 77.6743 -24.1805 9.17443 -13.869 -14.3748 -20.5199 -54.2239 -6.33185 0.256773 -15.0126 1.85575 -0.307123 -0.34989 -3.90449 -0.235117 -0.492707 
-247.024 97.7757 234.941 96.5977 30.3345 90.3788 -168.159 19.5264 95.8532 -36.4384 -8.60023 -4.0979 70.9091 4.79325 -3.31287 12.586 -12.7091 8.60991 179.93 -5.63562 97.39 -13.3218 -17.6017 -2.75199 69.256 -6.07677 1.28365 22.0651 1.90345 2.15831 2.27602 7.53685 -90.6761 11.8386 4.20825 -1.79674 0.172959 4.12511 -1.98045 -22.4158 4.55332 -0.446579 -2.40313 4.55334 -0.446573 89.2996 -26.8936 -109.455 39.7227 5.0536 -11.4686 -9.49292 -11.7495 -57.6403 -16.1605 1.53505 -22.6174 -90.8995 -53.4362 78.148 -21.8118 7.0755 -13.8484 -12.5453 -18.8005 -55.0603 -8.19274 0.37071 -13.4238 2.80659 0.248231 3.4236 -3.52673 -0.303973 -0.872089 
-241.113 96.4375 228.464 97.0335 27.9441 88.0317 -172.87 17.2215 94.337 -9.43484 -8.27911 -3.01317 65.3215 2.50851 -1.74001 18.7523 -8.02901 7.21416 176.631 -10.5971 92.5461 -16.6408 -22.9621 -3.8488 75.3174 -9.24685 0.368911 23.6601 1.85205 -0.456717 2.57008 7.72981 -90.3901 11.4491 4.93147 -1.27798 -0.213375 4.87044 -1.49426 -22.8239 5.08697 0.267055 -2.81123 5.08698 0.267051 87.5921 -28.597 -112.146 35.6746 3.4141 -12.6463 -8.48235 -8.32227 -58.7064 -15.455 1.72825 -23.3245 -90.6803 -54.3722 78.6515 -18.047 6.97346 -12.3775 -18.0849 -20.1878 -60.3257 -7.76349 0.461657 -16.0471 3.89311 0.623572 5.04915 -3.6021 -0.25163 -0.639106 
-234.219 94.5247 221.387 99.5535 26.0719 83.363 -174.524 15.9713 91.4947 -6.92323 -10.651 -2.51194 62.7914 0.295803 -2.67098 14.2413 -10.469 6.03973 171.703 -15.6828 84.7092 -23.4008 -27.2571 -5.45047 79.6254 -12.3461 -1.15368 28.3784 0.210715 -0.828864 2.58371 8.07571 -90.124 10.7507 5.08799 -0.712085 -0.910544 5.0517 -0.935896 -23.5252 5.06614 0.854046 -3.51257 5.06612 0.854037 87.4235 -27.2753 -113.107 35.0919 2.51524 -14.6671 -9.69389 -11.0076 -58.2986 -16.1722 1.59419 -22.9157 -90.9584 -58.8068 79.1731 -16.7642 2.72138 -12.0999 -16.3745 -18.5375 -61.8182 -8.65423 0.495184 -15.0273 3.88415 1.25732 8.15827 -2.62978 -0.158618 -2.05163 
-226.49 94.274 213.22 99.1763 27.2846 81.4735 -171.969 18.9169 89.1477 -20.8035 -1.02232 -5.70235 59.4455 -1.74422 -2.22478 9.60294 -13.1621 5.29197 171.675 -15.7798 82.8953 -32.1287 -24.4104 -8.90491 69.4613 -5.64674 -2.90624 42.6498 -4.59433 5.40359 2.29147 7.87342 -89.6917 11.1316 4.70413 0.153394 -0.530771 4.7063 -0.054258 -23.129 4.4401 1.56291 -3.11634 4.44009 1.56291 86.9106 -29.5358 -113.045 36.9588 2.63791 -13.7273 -10.9243 -12.2504 -57.8958 -15.2077 1.3172 -22.8415 -90.6877 -55.2091 78.8168 -22.2943 -0.138059 -8.68776 -14.3741 -17.3934 -62.13 -9.41991 0.553137 -14.791 5.07167 0.767216 2.37923 -3.74244 0.303507 0.883941 
-219.418 95.3703 205.761 98.1481 30.5348 80.9914 -170.903 16.6879 86.1911 -26.5962 3.26041 -5.95042 64.6952 2.86501 0.377979 12.3221 -10.3953 3.05042 176.327 -4.84289 84.3592 -52.1677 -19.9659 -8.96923 54.2747 3.40879 0.844627 20.019 1.71732 6.20366 1.61335 7.65687 -89.6175 11.558 3.38882 0.413449 -0.108547 3.40375 0.263707 -22.6742 3.10775 1.41375 -2.66158 3.10776 1.41374 87.4995 -27.7618 -112.722 39.3567 2.17817 -11.4348 -9.96614 -11.2124 -58.0128 -17.237 1.50815 -21.2045 -90.6044 -55.4659 78.9911 -23.1233 0.170195 -6.22291 -13.4396 -16.5252 -62.1018 -7.04505 0.330101 -14.6522 6.55331 0.928552 2.75054 -4.84751 0.399818 -1.09463 
-213.212 96.5442 199.251 98.0701 30.6239 81.9005 -172.148 10.8007 84.8263 -27.2313 1.90382 -5.25829 70.4102 6.25919 0.685484 13.1768 -10.2922 4.03354 -179.228 7.5992 86.0403 -64.3861 -20.6737 -8.11401 58.299 0.467142 -1.29186 23.3894 0.503905 7.52891 1.1467 7.67753 -89.7376 11.518 2.4042 0.276673 -0.150699 2.41405 0.170526 -22.7013 2.20986 0.986783 -2.6886 2.20983 0.986775 88.0779 -27.3855 -111.737 38.7149 1.96575 -12.08 -10.876 -12.4403 -55.7061 -14.6905 1.39912 -24.4796 -90.0943 -54.2901 79.4771 -23.3036 2.99086 -6.98538 -14.9841 -17.4986 -62.3593 -7.33318 0.395434 -15.4792 6.39464 1.36433 0.954156 -4.83081 1.17092 -1.04104 
-206.863 98.1493 192.604 101.127 32.6327 81.8725 -174.277 -0.781858 89.9532 -20.9655 1.68323 -2.50601 72.5252 7.69694 0.0749351 14.4606 -10.2509 5.85695 179.443 13.4314 91.4051 -54.5131 -9.69617 -4.69639 68.3281 -5.09291 -1.91533 21.7422 1.99376 2.31715 0.405412 7.90426 -89.8698 11.0646 0.867148 0.171866 -0.606116 0.873887 0.133521 -23.1424 0.775411 0.42454 -3.12978 0.775417 0.424541 87.2121 -29.1641 -112.624 37.4673 3.75094 -11.171 -10.1428 -12.0029 -57.0567 -14.2349 1.42554 -24.8952 -89.8096 -52.1367 79.4561 -24.9928 3.69059 -6.9856 -14.3451 -17.5513 -61.8802 -8.73838 0.531002 -15.4944 4.44794 1.56399 -3.9169 -4.71975 2.21401 0.877955 
-200.014 97.8236 186.763 101.032 35.4334 84.0099 -174.269 -6.51656 86.5218 -19.6687 3.87041 -0.690678 77.076 9.96501 0.979571 15.4131 -9.73725 6.07122 178.409 15.1562 94.5374 -26.7388 -3.53535 -0.700282 64.2965 -3.29374 -0.81662 24.3878 1.28825 1.36224 -0.157888 7.95269 -90.0649 10.9689 -0.344178 -0.0945275 -0.701948 -0.348011 -0.0792983 -23.2376 -0.299882 -0.193605 -3.22491 -0.299877 -0.19361 86.973 -29.6609 -112.861 36.1096 6.77706 -9.88523 -9.56887 -11.1384 -57.9883 -13.1172 1.39601 -25.6562 -90.0784 -49.9738 78.6037 -27.7494 4.16521 -9.38017 -10.6268 -15.3086 -60.7955 -7.68678 0.403524 -15.0218 5.60077 0.75315 -9.03129 -5.46238 2.38358 1.98591 
